<?xml version="1.0" standalone="no"?>
<!DOCTYPE svg PUBLIC "-//W3C//DTD SVG 20010904//EN"
 "http://www.w3.org/TR/2001/REC-SVG-20010904/DTD/svg10.dtd">
<svg version="1.0" xmlns="http://www.w3.org/2000/svg"
 width="1429.000000pt" height="1429.000000pt" viewBox="0 0 1429.000000 1429.000000"
 preserveAspectRatio="xMidYMid meet">
<metadata>
Created by potrace 1.14, written by Peter Selinger 2001-2017
</metadata>
<g transform="translate(0.000000,1429.000000) scale(0.100000,-0.100000)"
fill="#000000" stroke="none">
<path d="M6809 14286 c-2 -2 -56 -6 -120 -10 -64 -3 -134 -8 -155 -11 -22 -2
-66 -7 -99 -10 -892 -82 -1897 -396 -2690 -840 -359 -201 -664 -404 -975 -649
-158 -124 -199 -159 -474 -408 -10 -10 -23 -15 -28 -12 -5 3 -7 1 -6 -5 2 -6
-51 -66 -118 -133 -334 -339 -590 -650 -839 -1017 -613 -904 -995 -1878 -1169
-2986 -13 -79 -38 -300 -51 -440 -27 -291 -27 -1057 -1 -1225 2 -14 7 -61 11
-105 7 -91 10 -118 31 -265 23 -166 23 -169 45 -290 12 -63 23 -126 25 -140
16 -85 83 -369 120 -503 71 -257 210 -665 284 -832 10 -22 36 -85 60 -140 209
-496 566 -1094 929 -1555 280 -356 626 -719 951 -995 58 -50 107 -92 110 -95
3 -3 25 -21 50 -40 25 -19 47 -37 50 -40 21 -25 333 -253 470 -344 47 -31 90
-60 95 -64 23 -19 369 -224 475 -282 613 -334 1346 -596 2030 -725 14 -3 36
-7 50 -10 14 -2 41 -7 60 -10 19 -3 60 -10 90 -15 138 -24 357 -51 510 -64
203 -18 303 -21 610 -21 293 0 515 7 620 20 14 1 57 6 95 9 71 7 279 33 325
41 154 25 226 38 285 49 39 8 97 19 130 26 187 36 605 151 825 227 395 136
856 342 1175 526 66 38 134 78 152 88 133 76 398 251 563 373 89 65 319 244
330 256 3 3 21 18 40 34 142 116 278 242 480 445 102 102 188 185 193 183 4
-1 6 2 5 7 -3 8 46 69 105 133 56 60 250 302 340 423 53 72 105 141 115 155
41 54 183 271 262 400 381 622 677 1339 848 2050 55 225 110 512 127 650 3 25
7 54 9 65 2 11 7 45 10 75 43 346 51 490 51 905 0 304 -7 523 -20 625 -2 19
-7 62 -10 95 -3 33 -10 94 -15 135 -5 41 -12 98 -16 125 -11 92 -63 391 -89
511 -14 66 -28 130 -31 144 -3 14 -27 109 -54 213 -237 890 -642 1727 -1193
2462 -148 197 -262 336 -417 506 -112 125 -390 402 -515 515 -295 265 -603
498 -975 736 -378 242 -877 486 -1355 661 -177 65 -615 198 -704 214 -14 2
-53 11 -86 20 -33 8 -67 16 -75 18 -318 64 -552 103 -725 121 -38 3 -77 8 -85
9 -9 2 -60 6 -115 10 -55 4 -111 9 -125 12 -28 6 -805 14 -811 9z"/>
<path d="M12275 12341 c-3 -5 -2 -12 3 -15 5 -3 9 1 9 9 0 17 -3 19 -12 6z"/>
</g>
</svg>
