<svg xmlns="http://www.w3.org/2000/svg" width="668.2" height="161.6" viewBox="0 0 668.2 161.6">
  <g id="polygon" transform="translate(-52.5 -76.724)">
    <path id="Path_20" data-name="Path 20" d="M52.5,96.924l105,60.6v40.4l-70-40.4v80.8l-35-20.2Z" fill="#2891f9"/>
    <path id="Path_21" data-name="Path 21" d="M87.5,238.324v-80.8l35,20.2v40.4Z" fill="#2bbdf7"/>
    <path id="Path_22" data-name="Path 22" d="M52.5,96.924l35-20.2,105,60.6-35,20.2Z" fill="#2b6def"/>
    <path id="Path_23" data-name="Path 23" d="M157.5,157.524l35-20.2v40.4l-35,20.2Z" fill="#2bbdf7"/>
    <path id="Path_24" data-name="Path 24" d="M192.5,96.924v121.2l35,20.2v-121.2Z" fill="#2891f9"/>
    <path id="Path_25" data-name="Path 25" d="M262.5,96.924l-35,20.2v121.2l35-20.2Z" fill="#2bbdf7"/>
    <path id="Path_26" data-name="Path 26" d="M227.5,76.724l35,20.2-35,20.2-35-20.2Z" fill="#2b6def"/>
    <path id="Path_27" data-name="Path 27" d="M507,128.124h17.7v81.6H507v-11.5a32.968,32.968,0,0,1-28.5,14,40.3,40.3,0,0,1-28.5-12.1,45.229,45.229,0,0,1-12-30.6,42.035,42.035,0,0,1,11.4-30.6c7.6-8.3,17.7-12.7,28.5-12.1,11.4-.6,21.5,4.5,28.5,13.4Zm-25.3,67a27.379,27.379,0,0,0,18.4-7,26.544,26.544,0,0,0,7.6-18.5,25.532,25.532,0,0,0-7.6-18.5,25.953,25.953,0,0,0-36.8,0,25.532,25.532,0,0,0-7.6,18.5c0,7,2.5,14,7.6,18.5C467.8,192.524,474.7,195.124,481.7,195.124Zm110.3-49.8H571.7v38.9c0,10.2,7,10.2,20.3,9.6v15.9c-26.6,3.2-37.4-3.8-37.4-25.5v-38.9H539.4v-17.2h15.2v-22.9h17.7v22.9h20.3Zm17.1-32.5c-4.4-4.5-4.4-11.5,0-15.3a10.762,10.762,0,0,1,15.2-.6l.6.6a11.226,11.226,0,0,1,0,15.9A11.5,11.5,0,0,1,609.1,112.824Zm-1.3,96.9v-81.6h17.7v81.6Zm45.7-10.2c-8.2-8.3-12.7-19.1-12-30.6a40.225,40.225,0,0,1,12-30.6,39.523,39.523,0,0,1,30.4-12.1,38.775,38.775,0,0,1,36.1,21l-15.2,8.9a21.219,21.219,0,0,0-20.9-12.7,24.435,24.435,0,0,0-17.7,7,28.136,28.136,0,0,0-7,18.5,27.632,27.632,0,0,0,7,18.5c5.1,5.1,11.4,7.6,17.7,7a24.248,24.248,0,0,0,21.6-12.7l15.2,8.9a39.645,39.645,0,0,1-36.8,21A44.364,44.364,0,0,1,653.5,199.524Zm-249.8-94.3-34.2,57.4-34.2-57.4H315v104.5h19v-72l30.4,51.6h9.5l31.1-51v71.4h19v-104.5Z" fill="#061024"/>
  </g>
</svg>
